# xmcd
#
# Track frame offsets: 
#        175
#        22400
#        49470
#        71127
#        96840
#        115965
#        135722
#        168127
#        190115
#        208095
#        226682
#        243537
#
# Disc length: 3462 seconds
#
# Revision: 3
# Processed by: cddbd v1.5.2PL0 Copyright (c) Steve Scherf et al.
# Submitted via: ExactAudioCopy v0.99pb4
#
DISCID=af0d840c
DTITLE=Lyle Lovett - Joshua Judges Ruth
DYEAR=1992
DGENRE=
TTITLE0=I've Been To Memphis
TTITLE1=Church
TTITLE2=She's Already Made Up Her Mind
TTITLE3=North Dakota
TTITLE4=You've Been So Good Up To Now
TTITLE5=All My Love Is Gone
TTITLE6=Since The Last Time
TTITLE7=Baltimore
TTITLE8=Family Reserve
TTITLE9=She's Leaving Me Because She Really Wants To
TTITLE10=Flyswatter/Ice Water Blues
TTITLE11=She Makes Me Feel Good
EXTD=
EXTT0=
EXTT1=
EXTT2=
EXTT3=
EXTT4=
EXTT5=
EXTT6=
EXTT7=
EXTT8=
EXTT9=
EXTT10=
EXTT11=
PLAYORDER=
